<svg width="14" height="17" viewBox="0 0 14 17" fill="none" xmlns="http://www.w3.org/2000/svg">
<path fill-rule="evenodd" clip-rule="evenodd" d="M3.86305 4.29095C3.86305 2.56085 5.27073 1.15398 7.00083 1.15398C8.73013 1.15398 10.137 2.56085 10.137 4.29095C10.137 6.02024 8.73013 7.42792 7.00083 7.42792V8.00489L6.9774 7.42792C5.25457 7.42145 3.8574 6.01539 3.86305 4.29095ZM6.97494 8.58101H7.0008C9.36686 8.58101 11.2909 6.65697 11.2909 4.29091C11.2909 1.92485 9.36686 0 7.0008 0C4.63393 0 2.70908 1.92485 2.70908 4.28849C2.701 6.64808 4.61373 8.57374 6.97494 8.58101ZM1.81221 13.0693C1.81221 11.9016 3.55766 11.3101 7.00089 11.3101C10.4433 11.3101 12.188 11.9073 12.188 13.0855C12.188 14.2532 10.4433 14.8447 7.00089 14.8447C3.55766 14.8447 1.81221 14.2475 1.81221 13.0693ZM0.599976 13.0695C0.599976 16.0569 5.41775 16.0569 7.00078 16.0569C9.74745 16.0569 13.4 15.7491 13.4 13.0856C13.4 10.0981 8.58381 10.0981 7.00078 10.0981C4.25331 10.0981 0.599976 10.406 0.599976 13.0695Z" fill="#808080"/>
</svg>
