<svg width="16" height="16" viewBox="0 0 16 16" fill="none" xmlns="http://www.w3.org/2000/svg">
<path fill-rule="evenodd" clip-rule="evenodd" d="M1.2 4.7328C1.2 2.5864 2.508 1.2 4.5312 1.2H11.4672C13.4912 1.2 14.8 2.5864 14.8 4.7328V11.2672C14.8 13.4136 13.4912 14.8 11.4656 14.8H4.5312C2.508 14.8 1.2 13.4136 1.2 11.2672V4.7328ZM4.5312 16H11.4656C14.1784 16 16 14.0976 16 11.2672V4.7328C16 1.9024 14.1784 0 11.4672 0H4.5312C1.8208 0 0 1.9024 0 4.7328V11.2672C0 14.0976 1.8208 16 4.5312 16ZM4.58787 8.0004C4.58787 7.514 4.98307 7.1188 5.47107 7.1188C5.95587 7.1196 6.35107 7.5148 6.35107 8.0004C6.35107 8.4868 5.95507 8.882 5.46947 8.882C4.98307 8.882 4.58787 8.4868 4.58787 8.0004ZM3.38784 8.00035C3.38784 9.14755 4.32144 10.0819 5.46944 10.0819C6.4091 10.0819 7.20511 9.45593 7.46309 8.59961H9.14512V9.48201C9.14512 9.81321 9.41392 10.082 9.74512 10.082C10.0763 10.082 10.3451 9.81321 10.3451 9.48201V8.59961H11.4078V9.48201C11.4078 9.81321 11.6766 10.082 12.0078 10.082C12.339 10.082 12.6078 9.81321 12.6078 9.48201V7.99961C12.6078 7.66841 12.339 7.39961 12.0078 7.39961H9.74512H7.46275C7.20463 6.54425 6.40984 5.9194 5.46944 5.91875C4.32144 5.91875 3.38784 6.85235 3.38784 8.00035Z" fill="#808080"/>
</svg>
