<svg width="14" height="17" viewBox="0 0 14 17" fill="none" xmlns="http://www.w3.org/2000/svg">
<path fill-rule="evenodd" clip-rule="evenodd" d="M1.2364 6.85184C1.2364 3.75599 3.73221 1.23628 6.80004 1.23628C9.86787 1.23628 12.3637 3.75599 12.3637 6.85184C12.3637 10.7901 7.72813 14.6277 6.80004 14.833C5.87194 14.6286 1.2364 10.7909 1.2364 6.85184ZM0 6.85193C0 11.4965 5.32131 16.0727 6.8 16.0727C8.27869 16.0727 13.6 11.4965 13.6 6.85193C13.6 3.0736 10.5495 0 6.8 0C3.05052 0 0 3.0736 0 6.85193ZM5.35845 6.80057C5.35845 6.00435 6.00548 5.35732 6.80087 5.35732C7.59627 5.35732 8.2433 6.00435 8.2433 6.80057C8.2433 7.59597 7.59627 8.24217 6.80087 8.24217C6.00548 8.24217 5.35845 7.59597 5.35845 6.80057ZM4.12209 6.80066C4.12209 8.2777 5.32384 9.47862 6.80088 9.47862C8.27792 9.47862 9.47967 8.2777 9.47967 6.80066C9.47967 5.32279 8.27792 4.12105 6.80088 4.12105C5.32384 4.12105 4.12209 5.32279 4.12209 6.80066Z" fill="#808080"/>
</svg>
