<svg width="16" height="16" viewBox="0 0 16 16" fill="none" xmlns="http://www.w3.org/2000/svg">
<path fill-rule="evenodd" clip-rule="evenodd" d="M1.84123 2.38924C1.84279 2.38924 1.80377 2.42983 1.7546 2.47822C1.56572 2.66163 1.17469 3.04329 1.17079 3.84173C1.16455 4.95861 1.89899 7.03236 5.43538 10.568C8.95538 14.0864 11.026 14.8294 12.1452 14.8294H12.1616C12.9601 14.8255 13.3409 14.4337 13.5251 14.2456C13.5813 14.1879 13.6266 14.1457 13.6586 14.1192C14.436 13.3371 14.834 12.7549 14.8301 12.3818C14.8247 12.001 14.3509 11.5506 13.6961 10.9278C13.4877 10.7295 13.2613 10.5141 13.0225 10.2753C12.4036 9.65792 12.0968 9.76329 11.4225 10.0006C10.4898 10.3276 9.20982 10.7725 7.22114 8.783C5.22933 6.79275 5.67499 5.51431 6.00123 4.58163C6.23694 3.90729 6.34465 3.59978 5.72494 2.98007C5.48221 2.73812 5.26445 2.50865 5.06387 2.29792C4.44494 1.647 3.9985 1.17636 3.61996 1.1709H3.61372C3.23987 1.1709 2.65918 1.57051 1.83733 2.39236C1.83967 2.39002 1.84045 2.38924 1.84123 2.38924ZM12.146 16.0001C10.201 16.0001 7.66524 14.4516 4.60807 11.396C1.53919 8.32793 -0.0116415 5.78432 6.57902e-05 3.83544C0.00709018 2.54763 0.682212 1.88812 0.935871 1.64071C0.949139 1.62432 0.994408 1.57983 1.01002 1.56422C2.12924 0.444217 2.88397 -0.00846569 3.6348 0.000119681C4.5066 0.011827 5.12709 0.664315 5.91226 1.49085C6.10661 1.69534 6.31734 1.91778 6.55226 2.15193C7.69178 3.29144 7.36709 4.221 7.10641 4.96715C6.82231 5.7812 6.57646 6.48363 8.04846 7.95564C9.52202 9.42764 10.2245 9.18178 11.0354 8.89534C11.7823 8.63466 12.7095 8.30842 13.8506 9.44793C14.0816 9.67895 14.301 9.88734 14.5031 10.0801C15.3335 10.8692 15.9891 11.4928 16.0001 12.367C16.0094 13.1123 15.5568 13.8717 14.4391 14.9902L13.9443 14.6546L14.3626 15.0635C14.1152 15.3172 13.4565 15.9931 12.1679 16.0001H12.146Z" fill="#808080"/>
</svg>
