<svg width="17" height="16" viewBox="0 0 17 16" fill="none" xmlns="http://www.w3.org/2000/svg">
<path fill-rule="evenodd" clip-rule="evenodd" d="M12.5445 14.0931H5.05394H5.04326C4.17368 14.0931 3.40097 13.7819 2.80905 13.1907C2.12253 12.5065 1.74419 11.5232 1.74419 10.4225V5.18368C1.74419 3.05321 3.13705 1.50703 5.05546 1.50703H12.5445C14.463 1.50703 15.8558 3.05321 15.8558 5.18368V10.4225C15.8558 11.5232 15.4782 12.5065 14.791 13.1907C14.199 13.7819 13.4271 14.0931 12.5567 14.0931C12.5522 14.0931 12.5461 14.0916 12.5445 14.0931ZM2.00122 14.0015C2.81283 14.81 3.86396 15.2372 5.04094 15.2372H5.05544H12.5445H12.5567C13.736 15.2372 14.7879 14.8093 15.5987 14.0015C16.5026 13.0999 17 11.8291 17 10.4225V5.18363C17 2.4353 15.0846 0.362793 12.5445 0.362793H5.05544C2.51534 0.362793 0.599976 2.4353 0.599976 5.18363V10.4225C0.599976 11.8291 1.09732 13.0999 2.00122 14.0015ZM7.37587 8.60229C7.80151 8.93945 8.31029 9.10802 8.8206 9.10802C9.33243 9.10802 9.84503 8.93792 10.2737 8.59772L13.6636 5.84252C13.9084 5.64266 13.9458 5.28263 13.7467 5.03777C13.5469 4.79215 13.1868 4.75401 12.9412 4.95463L9.55746 7.70525C9.12495 8.04851 8.52006 8.04851 8.09061 7.7083L4.67254 4.9531C4.42692 4.75554 4.06689 4.79444 3.8678 5.0393C3.67024 5.28492 3.70838 5.64572 3.95476 5.84404L7.37587 8.60229Z" fill="#808080"/>
</svg>
