<svg width="34" height="30" viewBox="0 0 34 30" fill="none" xmlns="http://www.w3.org/2000/svg">
<path d="M9.10393 5.72519L9.83986 6.40225L9.84067 6.40136L9.10393 5.72519ZM11.9682 1.99888L11.5987 1.06965L11.5983 1.06977L11.9682 1.99888ZM26.0928 10.0147C25.5406 10.0147 25.0928 10.4624 25.0928 11.0147C25.0928 11.567 25.5406 12.0147 26.0928 12.0147V10.0147ZM26.1077 12.0147C26.66 12.0147 27.1077 11.567 27.1077 11.0147C27.1077 10.4624 26.66 10.0147 26.1077 10.0147V12.0147ZM21.6604 2.92799C22.1588 3.12639 22.5612 3.60539 22.9606 4.3201C23.1605 4.67779 23.3157 5.00865 23.5049 5.37815C23.6697 5.70008 23.8844 6.10187 24.1593 6.40136L25.6328 5.04902C25.566 4.97621 25.4605 4.8092 25.2851 4.46658C25.134 4.17152 24.9287 3.74207 24.7065 3.3444C24.2616 2.5484 23.5727 1.53655 22.4 1.06977L21.6604 2.92799ZM24.1593 6.40136C25.0691 7.39266 26.3371 7.72295 27.0984 7.72295V5.72295C26.7775 5.72295 26.0898 5.54691 25.6328 5.04902L24.1593 6.40136ZM27.0984 7.72295C29.4221 7.72295 31.3056 9.60687 31.3056 11.9285H33.3056C33.3056 8.50188 30.5263 5.72295 27.0984 5.72295V7.72295ZM31.3056 11.9285V21.5173H33.3056V11.9285H31.3056ZM31.3056 21.5173C31.3056 24.8204 28.626 27.5 25.323 27.5V29.5C29.7306 29.5 33.3056 25.925 33.3056 21.5173H31.3056ZM25.323 27.5H8.67702V29.5H25.323V27.5ZM8.67702 27.5C5.37244 27.5 2.69434 24.8206 2.69434 21.5173H0.694336C0.694336 25.9248 4.26756 29.5 8.67702 29.5V27.5ZM2.69434 21.5173V11.9285H0.694336V21.5173H2.69434ZM2.69434 11.9285C2.69434 9.60687 4.57784 7.72295 6.90157 7.72295V5.72295C3.47368 5.72295 0.694336 8.50188 0.694336 11.9285H2.69434ZM6.90157 7.72295C7.66174 7.72295 8.92895 7.39236 9.83986 6.40224L8.368 5.04813C7.90884 5.54721 7.22024 5.72295 6.90157 5.72295V7.72295ZM9.84067 6.40136C10.1157 6.10172 10.3303 5.69978 10.495 5.37782C10.6841 5.0082 10.839 4.67747 11.0387 4.31974C11.4377 3.60508 11.8397 3.12631 12.338 2.92799L11.5983 1.06977C10.4254 1.53663 9.73693 2.54871 9.29247 3.34476C9.07047 3.74239 8.86538 4.17198 8.71449 4.46691C8.53922 4.80951 8.43387 4.97635 8.36718 5.04902L9.84067 6.40136ZM12.3376 2.92812C12.6094 2.82005 13.2143 2.7034 14.104 2.6204C14.9575 2.54076 15.9745 2.5 16.9998 2.5C18.0251 2.5 19.0419 2.54076 19.8953 2.62039C20.7848 2.70341 21.3892 2.82005 21.6604 2.92799L22.4 1.06977C21.8356 0.845123 20.9735 0.71233 20.0811 0.629047C19.1525 0.542391 18.072 0.5 16.9998 0.5C15.9276 0.5 14.8469 0.542391 13.9182 0.629045C13.0255 0.712334 12.1633 0.845124 11.5987 1.06965L12.3376 2.92812ZM26.0928 12.0147H26.1077V10.0147H26.0928V12.0147ZM23.2597 17.0178C23.2597 13.5599 20.4574 10.7576 16.9995 10.7576V12.7576C19.3528 12.7576 21.2597 14.6645 21.2597 17.0178H23.2597ZM16.9995 10.7576C13.5416 10.7576 10.7393 13.5599 10.7393 17.0178H12.7393C12.7393 14.6645 14.6462 12.7576 16.9995 12.7576V10.7576ZM10.7393 17.0178C10.7393 20.4757 13.5416 23.278 16.9995 23.278V21.278C14.6462 21.278 12.7393 19.3711 12.7393 17.0178H10.7393ZM16.9995 23.278C20.4574 23.278 23.2597 20.4757 23.2597 17.0178H21.2597C21.2597 19.3711 19.3528 21.278 16.9995 21.278V23.278Z" fill="#808080"/>
</svg>
