<svg width="16" height="16" viewBox="0 0 16 16" fill="none" xmlns="http://www.w3.org/2000/svg">
<path fill-rule="evenodd" clip-rule="evenodd" d="M8.00028 1.11637C4.1984 1.11637 1.11637 4.1984 1.11637 8.00028C1.11637 11.8022 4.1984 14.8842 8.00028 14.8842C11.8022 14.8842 14.8842 11.8022 14.8842 8.00028C14.8842 4.1984 11.8022 1.11637 8.00028 1.11637ZM6.10352e-05 8.00028C6.10352e-05 3.58188 3.58188 6.10352e-05 8.00028 6.10352e-05C12.4187 6.10352e-05 16.0005 3.58188 16.0005 8.00028C16.0005 12.4187 12.4187 16.0005 8.00028 16.0005C3.58188 16.0005 6.10352e-05 12.4187 6.10352e-05 8.00028Z" fill="#808080"/>
</svg>
