<svg width="41" height="40" viewBox="0 0 41 40" fill="none" xmlns="http://www.w3.org/2000/svg">
<path fill-rule="evenodd" clip-rule="evenodd" d="M20.5 2.7907C10.758 2.7907 2.86047 10.4956 2.86047 20C2.86047 29.5044 10.758 37.2093 20.5 37.2093C30.242 37.2093 38.1395 29.5044 38.1395 20C38.1395 10.4956 30.242 2.7907 20.5 2.7907ZM0 20C0 8.9543 9.17816 0 20.5 0C31.8218 0 41 8.9543 41 20C41 31.0457 31.8218 40 20.5 40C9.17816 40 0 31.0457 0 20Z" fill="#D8D8D8"/>
<path fill-rule="evenodd" clip-rule="evenodd" d="M28.7091 22.446C29.4309 22.7592 29.7557 23.5838 29.4347 24.288C28.5758 26.1722 27.3209 27.7821 25.7614 28.9232C24.1966 30.0681 22.3813 30.6977 20.5001 30.6977C18.6188 30.6977 16.8035 30.0682 15.2387 28.9233C13.6792 27.7822 12.4243 26.1724 11.5653 24.2882C11.2443 23.584 11.5691 22.7594 12.2909 22.4462C13.0126 22.133 13.8579 22.4499 14.1789 23.154C14.8673 24.6641 15.8367 25.8725 16.955 26.6907C18.068 27.5051 19.2898 27.907 20.5 27.907C21.7102 27.907 22.9321 27.505 24.0451 26.6906C25.1633 25.8724 26.1327 24.664 26.8211 23.1539C27.1421 22.4498 27.9874 22.1328 28.7091 22.446Z" fill="#D8D8D8"/>
<path d="M12.8721 18.1395C13.9253 18.1395 14.7791 17.3066 14.7791 16.2791C14.7791 15.2516 13.9253 14.4186 12.8721 14.4186C11.8189 14.4186 10.9651 15.2516 10.9651 16.2791C10.9651 17.3066 11.8189 18.1395 12.8721 18.1395Z" fill="#D8D8D8"/>
<path d="M28.1279 18.1395C29.1811 18.1395 30.0349 17.3066 30.0349 16.2791C30.0349 15.2516 29.1811 14.4186 28.1279 14.4186C27.0747 14.4186 26.2209 15.2516 26.2209 16.2791C26.2209 17.3066 27.0747 18.1395 28.1279 18.1395Z" fill="#D8D8D8"/>
</svg>
