<svg width="21" height="21" viewBox="0 0 21 21" fill="none" xmlns="http://www.w3.org/2000/svg">
<path fill-rule="evenodd" clip-rule="evenodd" d="M3.03987 0.936768H6.41985C7.82985 0.936768 8.95984 2.08678 8.95984 3.49779V6.90682C8.95984 8.32683 7.82985 9.46684 6.41985 9.46684H3.03987C1.63987 9.46684 0.499878 8.32683 0.499878 6.90682V3.49779C0.499878 2.08678 1.63987 0.936768 3.03987 0.936768ZM3.03987 12.4067H6.41985C7.82985 12.4067 8.95984 13.5477 8.95984 14.9677V18.3767C8.95984 19.7868 7.82985 20.9368 6.41985 20.9368H3.03987C1.63987 20.9368 0.499878 19.7868 0.499878 18.3767V14.9677C0.499878 13.5477 1.63987 12.4067 3.03987 12.4067ZM17.9599 0.936768H14.5799C13.1699 0.936768 12.04 2.08678 12.04 3.49779V6.90681C12.04 8.32683 13.1699 9.46684 14.5799 9.46684H17.9599C19.3599 9.46684 20.4999 8.32683 20.4999 6.90681V3.49779C20.4999 2.08678 19.3599 0.936768 17.9599 0.936768ZM16.2699 12.4067H17.9599C19.3599 12.4067 20.4999 13.5477 20.4999 14.9677V16.6722V18.3767C20.4999 19.7868 19.3599 20.9368 17.9599 20.9368H16.2699H14.5799C13.1699 20.9368 12.04 19.7868 12.04 18.3767V16.6722V14.9677C12.04 13.5477 13.1699 12.4067 14.5799 12.4067H16.2699Z" fill="#D8D8D8"/>
</svg>
