<svg width="21" height="21" viewBox="0 0 21 21" fill="none" xmlns="http://www.w3.org/2000/svg">
<path d="M0.5 10.9832C0.5 10.4309 0.947715 9.98315 1.5 9.98315H19.5C20.0523 9.98315 20.5 10.4309 20.5 10.9832V12.9367C20.5 17.355 16.9183 20.9367 12.5 20.9367H8.5C4.08172 20.9367 0.5 17.355 0.5 12.9367V10.9832Z" fill="#D8D8D8"/>
<path d="M0.5 8.08221C0.5 4.13589 3.69912 0.936768 7.64544 0.936768H13.2549C17.2013 0.936768 20.4004 4.13589 20.4004 8.08221V8.08221C20.4004 8.5755 20.0005 8.97539 19.5072 8.97539H1.39318C0.899891 8.97539 0.5 8.5755 0.5 8.08221V8.08221Z" fill="#D8D8D8"/>
</svg>
