<svg width="21" height="21" viewBox="0 0 21 21" fill="none" xmlns="http://www.w3.org/2000/svg">
<path d="M10.5 0.936768C16.02 0.936768 20.5 5.41677 20.5 10.9368C20.5 16.4668 16.02 20.9368 10.5 20.9368C4.97 20.9368 0.5 16.4668 0.5 10.9368C0.5 5.41677 4.97 0.936768 10.5 0.936768ZM14.35 7.64677C14.46 7.29677 14.14 6.96677 13.79 7.07677L8.67 8.67677C8.46 8.74677 8.29 8.90677 8.23 9.11677L6.63 14.2468C6.52 14.5868 6.85 14.9168 7.19 14.8068L12.29 13.2068C12.5 13.1468 12.67 12.9768 12.73 12.7668L14.35 7.64677Z" fill="#D8D8D8"/>
</svg>
