<svg width="21" height="20" viewBox="0 0 21 20" fill="none" xmlns="http://www.w3.org/2000/svg">
<path fill-rule="evenodd" clip-rule="evenodd" d="M1.82396 8.95947C3.22596 13.3215 8.76496 16.8485 10.237 17.7215C11.714 16.8395 17.293 13.2735 18.65 8.96348C19.541 6.17747 18.714 2.64848 15.428 1.58948C13.836 1.07848 11.979 2.38948 10.697 3.38148C10.429 3.58748 10.057 3.59148 9.78696 3.38748C8.42896 2.36648 6.65496 1.06748 5.03796 1.58948C1.75696 2.64748 0.932959 6.17647 1.82396 8.95947ZM10.238 19.3375C10.114 19.3375 9.99096 19.3075 9.87896 19.2465C9.56596 19.0755 2.19296 15.0115 0.395957 9.41748L0.394957 9.41648C-0.733043 5.89448 0.522957 1.46848 4.57796 0.161476C6.48196 -0.454524 8.55696 0.816476 10.235 1.87548C11.861 0.847476 14.021 -0.436524 15.887 0.161476C19.946 1.47048 21.206 5.89548 20.079 9.41648C18.34 14.9465 10.913 19.0715 10.598 19.2445C10.486 19.3065 10.362 19.3375 10.238 19.3375Z" fill="#F5F5F5"/>
</svg>
