<svg width="11" height="11" viewBox="0 0 11 11" fill="none" xmlns="http://www.w3.org/2000/svg">
<path fill-rule="evenodd" clip-rule="evenodd" d="M2.79117 10.999C2.5582 10.999 2.32693 10.9217 2.12894 10.7695C1.78711 10.5055 1.61958 10.0697 1.69235 9.63096L2.08494 7.24685C2.09961 7.15827 2.07084 7.06849 2.00879 7.00547L0.341387 5.31698C0.0345296 5.00722 -0.0754651 4.54942 0.0542722 4.12433C0.185138 3.69447 0.53148 3.3871 0.958485 3.32289L3.26442 2.9727C3.35355 2.95962 3.43026 2.90195 3.46862 2.81991L4.49918 0.648644C4.68928 0.248518 5.07285 0 5.50042 0C5.92799 0 6.31156 0.248518 6.50165 0.648644L7.53278 2.81931C7.5717 2.90195 7.64785 2.95962 7.73641 2.9727L10.0424 3.32289C10.4694 3.3871 10.8157 3.69447 10.9466 4.12433C11.0763 4.54942 10.9657 5.00722 10.6589 5.31698L8.99148 7.00547C8.92943 7.06849 8.90123 7.15827 8.91589 7.24626L9.30906 9.63096C9.38126 10.0703 9.21373 10.5061 8.87133 10.7695C8.52443 11.0376 8.0726 11.0739 7.68959 10.8634L5.62903 9.73798C5.54836 9.69398 5.45191 9.69398 5.37125 9.73798L3.31068 10.864C3.14597 10.9544 2.96828 10.999 2.79117 10.999Z" fill="white"/>
</svg>
