<svg width="19" height="21" viewBox="0 0 19 21" fill="none" xmlns="http://www.w3.org/2000/svg">
<path fill-rule="evenodd" clip-rule="evenodd" d="M14.9824 5.48912H4.55939L1.29199 5.48912C0.877992 5.48912 0.541992 5.15312 0.541992 4.73912C0.541992 4.32512 0.877992 3.98912 1.29199 3.98912H4.55939C4.98539 3.98912 5.35539 3.68512 5.43939 3.26712L5.68239 2.05112C5.92939 1.11912 6.73639 0.500122 7.65439 0.500122H11.8874C12.8054 0.500122 13.6124 1.11912 13.8494 2.00612L14.1034 3.26712C14.1864 3.68512 14.5564 3.98912 14.9824 3.98912H18.25C18.664 3.98912 19 4.32512 19 4.73912C19 5.15312 18.664 5.48912 18.25 5.48912L14.9824 5.48912ZM6.78159 3.98912H12.7605C12.7053 3.85295 12.6621 3.71022 12.6324 3.56212L12.3894 2.34612C12.3384 2.16112 12.1274 2.00012 11.8874 2.00012H7.65439C7.41439 2.00012 7.20339 2.16112 7.14239 2.39212L6.90939 3.56212C6.8798 3.71022 6.83672 3.85295 6.78159 3.98912ZM9.78859 20.4998C8.43359 20.4998 7.11259 20.4848 5.80559 20.4578C4.13359 20.4248 2.97659 19.3408 2.78759 17.6288C2.47259 14.7888 1.93359 8.09482 1.92859 8.02782C1.89459 7.61482 2.20259 7.25282 2.61559 7.21982C3.02259 7.20882 3.39059 7.49482 3.42359 7.90682C3.42859 7.97482 3.96659 14.6458 4.27859 17.4638C4.38559 18.4368 4.91059 18.9388 5.83659 18.9578C8.33659 19.0108 10.8876 19.0138 13.6376 18.9638C14.6216 18.9448 15.1536 18.4528 15.2636 17.4568C15.5522 14.8554 16.0403 8.87805 16.111 8.01174L16.1196 7.90682C16.1526 7.49482 16.5176 7.20682 16.9266 7.21982C17.3396 7.25382 17.6476 7.61482 17.6146 8.02782L17.606 8.1322L17.606 8.1323C17.5353 8.9987 17.0452 15 16.7546 17.6218C16.5606 19.3688 15.4066 20.4318 13.6646 20.4638C12.3316 20.4868 11.0456 20.4998 9.78859 20.4998Z" fill="#808080"/>
</svg>
