<svg width="31" height="31" viewBox="0 0 31 31" fill="none" xmlns="http://www.w3.org/2000/svg">
<path fill-rule="evenodd" clip-rule="evenodd" d="M0.743408 15.3311C0.743408 7.04678 7.45914 0.331055 15.7434 0.331055C24.0277 0.331055 30.7434 7.04678 30.7434 15.3311C30.7434 23.6153 24.0277 30.3311 15.7434 30.3311C7.45914 30.3311 0.743408 23.6153 0.743408 15.3311Z" fill="#EB4335"/>
<path fill-rule="evenodd" clip-rule="evenodd" d="M10.9712 12.411C10.8067 12.411 10.6549 12.473 10.5437 12.5857C10.3279 12.7954 10.3035 13.1298 10.4868 13.3634L10.5919 13.4642L14.2315 16.2257C14.6839 16.5714 15.2234 16.7542 15.7918 16.7542C16.3569 16.7542 16.9134 16.5665 17.3585 16.2257L20.9679 13.418L21.032 13.3557C21.2246 13.1281 21.2207 12.801 21.0227 12.578C20.9133 12.4633 20.7631 12.3915 20.6 12.3757C20.5887 12.3751 20.5775 12.3749 20.5663 12.3749C20.4099 12.3749 20.2623 12.4303 20.1507 12.5311L16.5435 15.3311C16.3192 15.5119 16.0361 15.6114 15.7463 15.6114C15.4564 15.6114 15.1714 15.5119 14.9436 15.3311L11.3436 12.5311C11.2344 12.4525 11.1056 12.411 10.9712 12.411H10.9712ZM19.6948 22.3311H11.7913C9.55928 22.3311 7.74341 20.5691 7.74341 18.4034V12.2588C7.74341 10.093 9.55928 8.33105 11.7913 8.33105H19.6948C20.7633 8.33105 21.8073 8.75101 22.559 9.48325C23.3228 10.2251 23.7434 11.2108 23.7434 12.2588V18.4034C23.7434 20.5691 21.9272 22.3311 19.6948 22.3311Z" fill="white"/>
</svg>
