<svg width="31" height="31" viewBox="0 0 31 31" fill="none" xmlns="http://www.w3.org/2000/svg">
<path fill-rule="evenodd" clip-rule="evenodd" d="M0.743408 15.3311C0.743408 7.04678 7.45914 0.331055 15.7434 0.331055C24.0277 0.331055 30.7434 7.04678 30.7434 15.3311C30.7434 23.6153 24.0277 30.3311 15.7434 30.3311C7.45914 30.3311 0.743408 23.6153 0.743408 15.3311Z" fill="#4285F4"/>
<path fill-rule="evenodd" clip-rule="evenodd" d="M15.3984 15.6791C18.3377 18.6176 19.0045 15.2181 20.876 17.0883C22.6802 18.892 23.7172 19.2534 21.4313 21.5387C21.1449 21.7689 19.3257 24.5373 12.9321 18.1455C6.5377 11.7529 9.30459 9.93179 9.53477 9.64553C11.8263 7.35387 12.1814 8.3969 13.9857 10.2007C15.8572 12.0716 12.4591 12.7406 15.3984 15.6791L15.3984 15.6791Z" fill="white"/>
</svg>
