<svg width="15" height="15" viewBox="0 0 15 15" fill="none" xmlns="http://www.w3.org/2000/svg">
<path fill-rule="evenodd" clip-rule="evenodd" d="M14.7416 0.258435C15.0861 0.603015 15.0861 1.16169 14.7416 1.50627L8.74783 7.50001L14.7415 13.4937C15.0861 13.8383 15.0861 14.397 14.7415 14.7416C14.397 15.0861 13.8383 15.0861 13.4937 14.7416L7.5 8.74785L1.5063 14.7416C1.16172 15.0861 0.603042 15.0861 0.258461 14.7416C-0.0861193 14.397 -0.0861198 13.8383 0.25846 13.4937L6.25216 7.50001L0.258435 1.50627C-0.0861453 1.16169 -0.0861448 0.603018 0.258436 0.258438C0.603016 -0.0861424 1.16169 -0.086142 1.50627 0.258439L7.5 6.25218L13.4937 0.258436C13.8383 -0.0861448 14.397 -0.0861453 14.7416 0.258435Z" fill="white"/>
</svg>
