<svg width="64" height="36" viewBox="0 0 64 36" fill="none" xmlns="http://www.w3.org/2000/svg">
<path fill-rule="evenodd" clip-rule="evenodd" d="M20.992 1.4784C21.1886 1.62164 21.8364 2.48859 21.9447 2.70857C22.4676 3.46868 23.1289 4.72526 23.4334 5.58629C23.9659 7.14254 24.4154 8.33312 24.8554 9.93782C24.8967 10.1085 24.9095 10.0608 24.9447 10.1792C25.2273 11.3303 25.5889 12.563 25.912 13.7075C25.9459 13.8277 25.9997 13.9418 26.0388 14.0875L26.4404 15.6692C26.5046 15.9418 26.5415 15.941 26.5622 16.0318C26.7568 16.8869 26.9209 17.5662 27.1454 18.4267C27.1777 18.57 27.2108 18.6991 27.2314 18.8444C27.5136 20.8442 28.2817 23.362 28.648 25.3648C28.6592 25.5425 28.713 25.5941 28.7381 25.7602C28.994 27.4572 29.3659 29.2333 29.5094 30.9389C29.5352 31.2454 29.5198 31.59 29.5529 31.886C29.562 31.9677 29.5925 32.0177 29.6042 32.0939L29.6638 32.7672C29.7055 33.3972 29.7636 33.9989 29.1326 34.1768C28.9456 34.2295 28.8758 34.1814 28.7318 34.1153C28.5063 34.0117 28.6726 34.1021 28.4514 33.9105C27.6248 32.8827 27.4105 31.1539 26.35 29.7736C26.3329 29.7542 26.0777 29.4363 26.0666 29.4188C25.938 29.2176 24.8072 28.324 24.4768 28.1182C24.4325 28.0906 24.4318 28.0824 24.3911 28.0495C22.447 26.4759 19.0287 26.1832 16.61 25.8365C15.4211 25.7891 13.6152 25.9341 12.6303 25.7995C12.4027 25.7683 12.0758 25.8099 11.839 25.7741C11.5652 25.7328 10.4506 25.7571 10.272 25.7301C10.059 25.6979 9.7137 25.7065 9.49023 25.6954C9.25786 25.6838 8.97529 25.6277 8.74048 25.6286C8.24588 25.6304 6.42247 25.4863 6.10826 25.4141C5.09937 25.1823 4.09873 25.2613 3.03296 24.8488C2.75909 24.7428 2.77869 24.7926 2.55938 24.7046C1.85276 24.3844 1.08271 23.9143 0.405976 23.6155L0.0649606 23.3611C0.0253533 23.3305 0.0068425 23.2994 0 23.2663V23.1898C0.0058388 23.1482 0.0178057 23.1026 0.0220811 23.0511L0.110339 23.0529C0.595355 23.0621 0.865561 23.0193 1.36133 23.1027C1.74782 23.1677 2.14082 23.243 2.53742 23.2747C2.94908 23.3077 3.31839 23.3806 3.75185 23.4038C4.96916 23.4691 6.51351 23.483 7.71603 23.455C9.52547 23.4128 13.084 22.8556 14.5798 22.2496C14.7459 22.1824 14.8842 22.1285 15.0562 22.0645C15.1433 22.0321 15.1959 21.9868 15.2768 21.9546C15.4224 21.8966 15.6157 21.901 15.7809 21.774L16.2174 21.5488C16.3768 21.4923 16.3248 21.4832 16.4391 21.4173C16.7214 21.2544 16.74 21.2891 17.0803 21.0659C17.1611 21.0129 17.2263 20.9873 17.3103 20.9434L18.092 20.3928C18.2058 20.3613 18.3238 20.2187 18.3955 20.1316C19.2124 19.1393 18.2733 18.6726 17.2861 19.002C16.4592 19.2779 15.0577 18.8691 14.3459 18.3583C14.1047 18.1852 14.2031 18.3107 14.0449 18.1301C14.021 18.1028 14.0342 18.1156 14.0115 18.0972C13.8489 17.9657 13.9053 17.9841 13.8421 17.9359C13.0926 17.3641 12.9298 16.7005 12.5611 15.9754C12.5001 15.8555 12.4404 15.143 12.4404 15.0536C12.4402 14.5724 12.4865 13.9783 12.774 13.5723C12.997 13.3338 13.3796 12.8625 13.6184 12.7191C13.7594 12.6344 14.212 12.4524 14.3816 12.4013L14.8397 12.3299C15.0795 12.2898 15.677 12.3318 15.8754 12.3588C16.2752 12.4132 16.656 12.5522 17.0136 12.7215C17.1179 12.7709 17.198 12.8188 17.2824 12.8712C17.4436 12.9712 17.8948 13.2472 18.0331 13.3775C18.0667 13.4092 18.0924 13.4503 18.1266 13.482C18.2617 13.607 18.279 13.593 18.4598 13.7884C18.8466 14.2061 19.0224 14.5463 19.2853 15.0586C19.4156 15.3126 19.5881 16.1207 19.5896 16.4193C19.5915 16.7894 19.6242 16.8241 19.7867 17.0687C20.8468 18.6646 21.9507 14.0913 21.9381 11.6607C21.9329 10.6409 21.9519 8.95807 21.764 8.04461C21.6939 7.70395 21.7097 7.42466 21.6283 7.10049C21.3308 5.12073 20.5775 2.59016 18.8434 1.50823C18.5647 1.33441 18.2911 1.13653 17.9412 1.0648C17.6888 1.01302 17.8327 0.994642 17.5018 0.970554C17.2923 0.948517 17.2654 0.993428 17.0726 0.895977C16.9021 0.809775 16.9001 0.778077 16.9179 0.556061C16.9179 0.502048 16.9138 0.536635 16.9321 0.493514C17.0112 0.307385 17.5105 0.188234 17.7191 0.112001C19.0533 -0.37649 20.1348 0.853733 20.992 1.4784Z" fill="white"/>
<path fill-rule="evenodd" clip-rule="evenodd" d="M45.9066 0.979285C46.0332 1.21159 45.8604 2.02558 45.7985 2.29902C45.7748 2.4038 45.7456 2.45234 45.7166 2.56977C45.5849 3.10325 45.6456 2.79616 45.5183 3.12087C45.4744 3.23279 45.4622 3.28326 45.4062 3.38354C45.3625 3.46179 45.3127 3.52716 45.2662 3.59635C45.1903 3.70955 45.1528 3.84899 45.0776 3.95881C44.9632 4.12594 45.0268 4.19214 44.7496 4.55682L44.6049 4.78694C44.5561 4.86315 44.5051 4.93123 44.454 5.01079C44.3779 5.12948 44.3956 5.12794 44.2898 5.22142C44.2136 5.28872 44.2079 5.34846 44.1542 5.43861C44.0999 5.52993 44.0505 5.56673 43.9894 5.64866C43.9327 5.72484 43.8857 5.791 43.8322 5.86627C43.7749 5.947 43.7206 5.9767 43.6593 6.06824C43.6023 6.15346 43.4257 6.43078 43.3561 6.49257L42.6798 7.29363C42.6049 7.41688 42.5509 7.4242 42.5085 7.49715L42.3474 7.71096C42.2873 7.7791 42.2697 7.84826 42.2042 7.92053C42.1716 7.95656 42.149 7.97164 42.117 8.00968C42.0028 8.1452 41.922 8.19118 41.8286 8.29469C41.6895 8.44901 41.5738 8.54153 41.4355 8.71739C41.3591 8.81449 41.3214 8.88526 41.2347 8.95758C41.0405 9.11948 40.8697 9.35671 40.666 9.51357C40.5667 9.59007 40.5569 9.65828 40.452 9.74056C40.3275 9.8382 40.2394 9.96361 40.1113 10.0614C40.0161 10.1342 39.9702 10.2201 39.8723 10.2855L39.5228 10.5976C39.4559 10.662 39.4709 10.6451 39.3968 10.6921C39.3051 10.7502 39.2665 10.8206 39.1518 10.8883C38.9618 11.0004 38.8191 11.1589 38.6363 11.2769C37.7642 11.8397 36.9862 12.3789 36.03 12.8392L35.2501 13.1844C35.1039 13.2418 34.9694 13.3207 34.8696 13.3554C34.6287 13.4391 34.4173 13.5093 34.1621 13.5523C32.9194 13.762 32.3323 13.3515 33.3164 12.3115C33.4942 12.1235 33.6624 11.9841 33.831 11.7678C33.8953 11.711 33.9803 11.4491 34.1559 11.2108C34.2377 11.0999 34.3397 10.8151 34.3814 10.6648C34.6366 9.7462 34.746 9.70331 34.6711 8.68778C34.646 8.3475 34.5445 8.04756 34.496 7.71686C34.4784 7.59683 34.4216 7.54363 34.3899 7.42623C34.326 7.18959 34.296 7.0848 34.1691 6.87549C33.7502 6.30733 33.2368 5.68423 32.5763 5.38098C32.4841 5.33863 32.0806 5.26094 31.9428 5.24229C30.9682 5.11017 30.471 5.51072 29.8117 6.16894C28.9477 7.03146 28.7181 8.10668 28.7132 9.30361C28.7125 9.45787 28.7376 9.51742 28.7359 9.6775C28.7301 10.2112 29.0521 10.9693 29.3102 11.4176C29.6858 12.0696 30.7384 12.616 30.6855 13.1378C30.5871 14.109 28.8708 13.4709 28.3699 13.2597C27.9921 13.1044 26.8844 12.6643 26.7006 12.5245C26.6661 12.4983 26.5839 12.3592 26.3963 12.3436C26.3565 12.5142 26.4471 12.7717 26.5215 12.9457L26.617 13.3509C26.6203 13.3556 26.6249 13.3572 26.6262 13.3653C26.8652 14.1359 27.0359 15.0586 27.3028 15.8002C27.6712 16.824 28.3183 19.9705 28.5816 21.2658C29.0927 23.5014 30.044 27.0545 30.29 28.9922C30.3062 29.1205 30.3568 29.2212 30.3795 29.364C30.6121 30.8295 30.6747 32.995 30.6703 34.4644C30.6684 35.0676 30.7508 35.7318 31.462 35.9295C32.7108 36.2765 32.7581 34.6481 32.7488 33.9136C32.7254 32.0482 33.0071 30.7407 33.1375 29.0173C33.1794 28.4654 33.3059 27.7563 33.4432 27.1997L33.925 25.3015C33.9629 25.2245 33.9925 25.2285 34.0044 25.1205C34.1577 23.7233 35.8615 20.6145 36.6514 19.2981C36.8126 19.0465 36.7531 19.1576 36.8781 18.9956C36.9573 18.8929 36.9313 18.8593 37.0852 18.6738C37.3233 18.3868 37.4876 17.9946 37.7393 17.7405C37.8335 17.6454 37.9853 17.3578 38.1812 17.1238C38.2234 17.0734 38.2364 17.0154 38.2849 16.9632C38.4786 16.7544 38.443 16.7615 38.6171 16.5016C38.6953 16.3848 38.755 16.2924 38.8296 16.185C38.9828 15.9647 38.9616 16.0429 39.0635 15.8895C39.3414 15.4711 39.2479 15.6284 39.5375 15.3055C39.697 15.1277 39.8311 14.8783 39.9909 14.7003C40.076 14.6055 40.1434 14.5328 40.2068 14.3866C40.2516 14.2834 40.5534 13.9747 40.6825 13.8045L41.1288 13.1921C41.2166 13.071 41.2795 13.0123 41.3633 12.8976L42.0172 11.9641C42.482 11.231 43.0532 10.4684 43.476 9.69445C43.5656 9.55303 43.8716 8.96211 44.0085 8.93555L44.3028 8.45121C44.3404 8.37695 44.3574 8.3496 44.401 8.28478C44.5423 8.0747 44.4674 8.26344 44.5913 7.96808C44.6445 7.84137 44.7065 7.82402 44.7902 7.63783C44.8271 7.55566 44.8407 7.56859 44.8844 7.48952L45.5028 6.28462C45.5786 6.00121 45.5739 6.02631 45.6969 5.8108C45.7345 5.74505 45.7281 5.71706 45.7559 5.64879C45.8216 5.48712 46.6016 3.81882 46.5915 3.68562C46.7656 3.23886 46.8738 3.0031 46.8998 2.51715C46.9153 2.22824 46.9092 2.05934 46.9004 1.7672C46.8866 1.30334 46.8517 1.09325 46.607 0.694087C46.5506 0.602058 46.5924 0.647441 46.5021 0.600189L46.4338 0.805331C46.3179 0.842036 46.322 0.93395 46.2354 0.952982C46.1448 0.972871 46.011 0.963374 45.9065 0.979285H45.9066Z" fill="white"/>
<path fill-rule="evenodd" clip-rule="evenodd" d="M44.3269 14.556L44.1201 14.9445C44.009 15.1593 43.9106 15.6031 43.8579 15.8702C43.756 16.386 43.9552 16.8296 43.4344 17.2344C43.3137 17.3282 43.154 17.3475 43.0019 17.2712C42.6904 17.1151 42.7886 17.2025 42.6411 17.0352C42.5243 16.9028 42.5286 16.9462 42.3862 16.6953C42.105 16.1994 41.9855 15.4606 41.793 14.9289C41.7269 14.7463 41.6695 14.1066 41.6102 13.9445C41.4381 13.9201 41.4225 14.0469 41.3581 14.1695L40.7162 15.0055C40.6548 15.0755 40.6495 15.0547 40.5897 15.1439C40.3431 15.5207 38.3626 18.1684 38.3063 18.5192C38.282 18.6701 37.4637 19.9267 37.3404 20.1618C37.1032 20.614 36.549 21.4533 36.4052 21.8289C36.3709 21.9184 36.3761 21.9538 36.3281 22.0383L36.1254 22.4075C35.8609 22.7308 35.3521 24.4249 35.1386 24.8826L34.9724 25.2892C34.8609 25.5824 34.8261 25.8851 34.7181 26.1813L34.2609 28.0375C34.2238 28.194 34.2121 28.4063 34.1665 28.539C34.1033 28.7227 34.126 28.8485 34.0956 29.0409C34.0421 29.3798 33.9992 29.704 33.9588 30.0559C33.8451 31.0466 33.2653 34.2378 34.3863 34.2236C34.5725 34.2212 34.6411 34.1516 34.7615 34.0902C35.132 33.9012 35.3905 33.1841 35.5142 32.8147C35.6041 32.546 35.6682 32.2869 35.7979 32.0623C36.903 29.258 39.4561 26.9793 42.5375 26.4761C45.4766 25.6582 48.067 25.8003 51.116 25.7843C51.2435 25.7828 51.2824 25.7603 51.4236 25.7609C54.0432 25.6911 56.3321 25.575 58.9244 25.1628C58.9952 25.1553 59.1502 25.1528 59.2321 25.1395C59.3066 25.1273 59.4099 25.0739 59.4854 25.0619L60.0538 24.9463C60.5317 24.8296 63.3201 23.7649 63.3201 23.1395C63.1237 23.0082 62.8072 23.0504 62.4807 23.0506C62.2505 23.0508 61.5668 23.1926 61.2553 23.2375C59.3185 23.5165 57.3016 23.4382 55.3525 23.4481C53.478 23.3481 48.1266 22.5867 46.2652 21.0409C46.2066 20.9923 46.1852 20.9864 46.1123 20.9512C45.8939 20.8459 46.0357 20.8547 45.8225 20.7558L45.2628 20.3672C45.1792 20.301 44.8816 19.9536 44.8317 19.8501C44.6691 19.5126 44.757 19.0735 45.1695 18.9447C45.7463 18.7645 46.0094 19.216 47.2912 19.0577C47.6282 19.0161 47.5938 18.9956 47.8263 18.9089C48.4031 18.6937 48.5772 18.6736 49.1071 18.2927L49.5095 17.9893C49.8547 17.643 50.3539 17.0684 50.5929 16.6253C50.8292 16.1869 50.8631 15.8531 50.9487 15.3941L50.9515 14.6441C50.7403 13.155 49.7012 12.3435 48.1577 12.3365C47.6675 12.3342 47.5055 12.4065 47.1429 12.4751C46.2848 12.6375 44.8289 13.7077 44.3269 14.556Z" fill="white"/>
<path fill-rule="evenodd" clip-rule="evenodd" d="M39.1319 8.00417C39.0362 8.20564 38.7754 9.0954 38.7065 9.34061C38.6251 9.63031 38.4881 9.96133 38.4683 10.2683C38.6781 10.2542 39.3045 9.69103 39.4566 9.53998C39.5298 9.46736 39.5817 9.43791 39.655 9.36349C40.2645 8.74488 41.0345 8.13118 41.5647 7.48027C41.5983 7.44345 41.6955 7.30826 41.7353 7.25399C41.7353 6.58741 42.1456 5.22275 42.339 4.55173C42.8423 3.04131 43.9217 1.47453 45.5222 1.0536C45.6166 1.02876 45.7251 0.964771 45.9066 0.979228C46.0111 0.963317 46.1448 0.972814 46.2355 0.952925C46.3221 0.933893 46.3612 0.877471 46.4772 0.840766L46.5022 0.600132C46.4802 0.515529 46.3922 0.443158 46.3256 0.402186L46.091 0.261854C45.8067 0.0993805 45.0536 0.0803198 44.7392 0.139746C41.3463 0.781041 40.3949 5.34594 39.1319 8.00417Z" fill="white"/>
<path fill-rule="evenodd" clip-rule="evenodd" d="M20.9614 8.01211C20.8991 7.52049 20.9762 7.68337 20.6978 7.36921C19.7492 6.29877 18.3179 4.24973 17.9126 3.03232C17.6322 2.18986 17.5018 1.846 17.5018 0.970584C17.2923 0.948547 17.2654 0.993459 17.0726 0.896007C16.9021 0.809805 16.9001 0.778107 16.9179 0.556091C16.6957 0.66591 16.7948 0.788606 16.6343 1.01203C16.5905 1.07303 16.5726 1.12992 16.5585 1.20072C16.5409 1.28855 16.5436 1.32346 16.5278 1.41241C16.4832 1.66317 16.4424 1.5095 16.4424 2.09838C16.4425 3.14072 17.0367 5.0899 17.5835 5.76237C17.7384 6.07246 17.9944 6.67815 18.1672 6.94228C18.2025 6.99615 18.2408 7.02864 18.2735 7.07858C18.9599 8.12841 19.7072 9.44414 20.3716 10.5583C20.4307 10.6734 20.5831 10.9356 20.6735 11.0281C20.8424 11.2012 20.9823 11.559 21.1435 11.5724C21.1656 10.0912 21.1396 9.4184 20.9614 8.01211Z" fill="white"/>
<path fill-rule="evenodd" clip-rule="evenodd" d="M31.76 11.6392C31.3764 11.6363 30.2218 11.4802 30.0236 10.8465C29.9833 10.7178 29.9829 10.4884 30.1045 10.3684C30.2432 10.2314 30.3101 10.3851 30.4019 10.5018C30.6363 10.7997 31.1981 11.0271 31.5296 11.0279C32.1057 11.0293 32.5263 10.9059 33.0043 10.5017C33.0045 10.5015 33.3082 10.199 33.3814 10.4441C33.4783 10.717 33.361 10.9346 33.2516 11.0365C32.7653 11.4299 32.359 11.6437 31.76 11.6392Z" fill="white"/>
<path fill-rule="evenodd" clip-rule="evenodd" d="M18.2133 17.219C18.0365 17.5587 17.3727 18.5143 16.7169 18.4027C16.5837 18.3801 16.3788 18.2762 16.3269 18.1136C16.2676 17.928 16.4352 17.9383 16.5811 17.9097C16.9535 17.8367 17.4117 17.4405 17.563 17.1461C17.826 16.6347 17.9068 16.2045 17.7632 15.596C17.7631 15.5957 17.631 15.1883 17.883 15.2346C18.1707 15.2724 18.3116 15.4755 18.3529 15.6191C18.4832 16.2302 18.4894 16.6885 18.2133 17.219Z" fill="white"/>
<path fill-rule="evenodd" clip-rule="evenodd" d="M45.5375 17.3125C45.3274 16.9921 44.8182 15.9463 45.2371 15.4306C45.3221 15.3258 45.5133 15.1985 45.6808 15.233C45.8719 15.2724 45.7807 15.4131 45.7342 15.554C45.6155 15.9139 45.7369 16.5066 45.9199 16.7825C46.2377 17.2619 46.5737 17.5431 47.1756 17.7164C47.1759 17.7165 47.5965 17.8013 47.4326 17.9978C47.2586 18.2295 47.0121 18.2525 46.8665 18.2181C46.2689 18.0319 45.8655 17.8127 45.5375 17.3125Z" fill="white"/>
<path fill-rule="evenodd" clip-rule="evenodd" d="M31.76 11.6392C31.3764 11.6363 30.2218 11.4803 30.0236 10.8465C29.9833 10.7179 29.9829 10.4885 30.1045 10.3684C30.2432 10.2314 30.3101 10.3851 30.4019 10.5018C30.6363 10.7998 31.1981 11.0272 31.5296 11.028C32.1057 11.0294 32.5263 10.9059 33.0043 10.5018C33.0045 10.5016 33.3082 10.199 33.3814 10.4441C33.4783 10.7171 33.361 10.9346 33.2516 11.0365C32.7653 11.43 32.359 11.6437 31.76 11.6392Z" fill="white"/>
</svg>
