<svg width="20" height="24" viewBox="0 0 20 24" fill="none" xmlns="http://www.w3.org/2000/svg">
<path fill-rule="evenodd" clip-rule="evenodd" d="M3.58552 7.23896C3.58552 4.58232 6.21946 1.62184 9.99845 1.62184C13.7774 1.62184 16.4114 4.58232 16.4114 7.23896C16.4114 9.48689 17.0353 10.526 17.5867 11.4429C18.0289 12.1792 18.3782 12.7609 18.3814 13.9546C18.2019 16.0166 16.8136 17.1357 9.99845 17.1357C3.14545 17.1357 1.79929 16.0642 1.61872 14.0249C1.61872 12.7609 1.96797 12.1792 2.4102 11.4429C2.96164 10.526 3.58552 9.48689 3.58552 7.23896ZM7.5475e-05 14.0942C0.373109 18.4008 4.94249 18.7576 9.99845 18.7576C15.0544 18.7576 19.6227 18.4008 20.0001 14.025C20.0001 12.3123 19.4562 11.4062 18.9761 10.6082C18.4906 9.79942 18.0333 9.03714 18.0333 7.23901C18.0333 3.74331 14.8046 0 9.99845 0C5.19226 0 1.96364 3.74331 1.96364 7.23901C1.96364 9.03714 1.50626 9.79942 1.02078 10.6082C0.540703 11.4062 -0.00316829 12.3123 7.5475e-05 14.0942ZM6.71397 21.742C7.58438 22.7119 8.73159 23.246 9.94368 23.2471H9.94584C11.1612 23.2471 12.3105 22.713 13.1842 21.7431C13.4837 21.4111 13.4567 20.8975 13.1237 20.598C12.7917 20.2985 12.2792 20.3256 11.9786 20.6575C11.4174 21.2825 10.6952 21.6252 9.94584 21.6252H9.94476C9.19869 21.6252 8.47966 21.2825 7.91957 20.6586C7.62006 20.3245 7.10755 20.2974 6.77452 20.598C6.44149 20.8965 6.41446 21.4101 6.71397 21.742Z" fill="white"/>
</svg>
