<svg width="21" height="21" viewBox="0 0 21 21" fill="none" xmlns="http://www.w3.org/2000/svg">
<path fill-rule="evenodd" clip-rule="evenodd" d="M3.03987 0.153687H6.41985C7.82985 0.153687 8.95984 1.3037 8.95984 2.71471V6.12373C8.95984 7.54375 7.82985 8.68375 6.41985 8.68375H3.03987C1.63987 8.68375 0.499878 7.54375 0.499878 6.12373V2.71471C0.499878 1.3037 1.63987 0.153687 3.03987 0.153687ZM3.03987 11.6236H6.41985C7.82985 11.6236 8.95984 12.7646 8.95984 14.1846V17.5937C8.95984 19.0037 7.82985 20.1537 6.41985 20.1537H3.03987C1.63987 20.1537 0.499878 19.0037 0.499878 17.5937V14.1846C0.499878 12.7646 1.63987 11.6236 3.03987 11.6236ZM17.9599 0.153687H14.5799C13.1699 0.153687 12.04 1.3037 12.04 2.71471V6.12373C12.04 7.54375 13.1699 8.68375 14.5799 8.68375H17.9599C19.3599 8.68375 20.4999 7.54375 20.4999 6.12373V2.71471C20.4999 1.3037 19.3599 0.153687 17.9599 0.153687ZM16.2699 11.6236H17.9599C19.3599 11.6236 20.4999 12.7646 20.4999 14.1846V15.8891V17.5937C20.4999 19.0037 19.3599 20.1537 17.9599 20.1537H16.2699H14.5799C13.1699 20.1537 12.04 19.0037 12.04 17.5937V15.8891V14.1846C12.04 12.7646 13.1699 11.6236 14.5799 11.6236H16.2699Z" fill="#292929"/>
</svg>
