<svg width="21" height="21" viewBox="0 0 21 21" fill="none" xmlns="http://www.w3.org/2000/svg">
<path d="M0.5 10.2001C0.5 9.64779 0.947715 9.20007 1.5 9.20007H19.5C20.0523 9.20007 20.5 9.64779 20.5 10.2001V12.1536C20.5 16.5719 16.9183 20.1536 12.5 20.1536H8.5C4.08172 20.1536 0.5 16.5719 0.5 12.1536V10.2001Z" fill="#292929"/>
<path d="M0.5 7.29913C0.5 3.35281 3.69912 0.153687 7.64544 0.153687H13.2549C17.2013 0.153687 20.4004 3.35281 20.4004 7.29913V7.29913C20.4004 7.79242 20.0005 8.19231 19.5072 8.19231H1.39318C0.899891 8.19231 0.5 7.79242 0.5 7.29913V7.29913Z" fill="#292929"/>
</svg>
