<svg width="18" height="17" viewBox="0 0 18 17" fill="none" xmlns="http://www.w3.org/2000/svg">
<path fill-rule="evenodd" clip-rule="evenodd" d="M1.60366 7.87647C2.83632 11.7112 7.7063 14.8119 9.0005 15.5793C10.2991 14.804 15.2043 11.669 16.3974 7.87999C17.1807 5.43075 16.4536 2.32833 13.5645 1.39734C12.1648 0.948112 10.5321 2.10064 9.40494 2.97273C9.16931 3.15383 8.84225 3.15735 8.60486 2.978C7.41088 2.08042 5.85115 0.938441 4.42946 1.39734C1.54475 2.32745 0.820273 5.42987 1.60366 7.87647ZM9.00138 17C8.89236 17 8.78421 16.9736 8.68574 16.92C8.41055 16.7697 1.92808 13.1969 0.348132 8.27911L0.347252 8.27823C-0.644504 5.18196 0.459792 1.29097 4.02502 0.141957C5.69904 -0.399582 7.52342 0.717782 8.99874 1.64877C10.4283 0.745035 12.3275 -0.383758 13.9681 0.141957C17.5368 1.29273 18.6446 5.18284 17.6538 8.27823C16.1248 13.1398 9.59485 16.7662 9.3179 16.9182C9.21943 16.9727 9.1104 17 9.00138 17Z" fill="#D8D8D8"/>
</svg>
