<svg width="18" height="18" viewBox="0 0 18 18" fill="none" xmlns="http://www.w3.org/2000/svg">
<path fill-rule="evenodd" clip-rule="evenodd" d="M11.5386 3.92309C11.5386 1.57662 11.5386 1.38462 14.077 1.38462C16.6155 1.38462 16.6155 1.57662 16.6155 3.94525C16.6155 4.96803 16.6155 5.70649 16.3654 6.01757C16.1208 6.32034 15.3943 6.46158 14.077 6.46158C12.7598 6.46158 12.0333 6.32127 11.7887 6.01849C11.5386 5.70649 11.5386 4.96803 11.5386 3.94617V3.92309ZM10.7114 6.8862C11.3529 7.68283 12.5206 7.84621 14.077 7.84621C15.6333 7.84621 16.801 7.68283 17.4425 6.8862C18.0001 6.19481 18.0001 5.2505 18.0001 3.92311C18.0001 1.27386 17.833 0 14.077 0C10.3209 0 10.1539 1.27386 10.1539 3.92311H10.8462L10.1539 3.94618C10.1539 5.25142 10.1539 6.19481 10.7114 6.8862ZM1.38473 3.9231C1.38473 1.57662 1.38473 1.38462 3.92321 1.38462C6.46169 1.38462 6.46169 1.57662 6.46169 3.94525V3.94526C6.46169 4.96803 6.46169 5.70649 6.21153 6.01757C5.96691 6.32034 5.24045 6.46158 3.92321 6.46158C2.60597 6.46158 1.8795 6.32127 1.63488 6.0185C1.38473 5.70649 1.38473 4.96803 1.38473 3.94617V3.9231ZM0.557611 6.88627C1.19915 7.68289 2.36686 7.84627 3.92317 7.84627C5.47949 7.84627 6.64719 7.68289 7.28874 6.88627C7.84628 6.19488 7.84628 5.25056 7.84628 3.92317C7.84628 1.27392 7.6792 6.25614e-05 3.92317 6.25614e-05C0.167147 6.25614e-05 6.86646e-05 1.27392 6.86646e-05 3.92317H0.692381L6.86646e-05 3.94625C6.86646e-05 5.25149 6.86646e-05 6.19488 0.557611 6.88627ZM3.92326 11.5386C1.38478 11.5386 1.38478 11.7306 1.38478 14.0771V14.1001C1.38478 15.122 1.38478 15.8605 1.63494 16.1725C1.87955 16.4752 2.60602 16.6155 3.92326 16.6155C5.2405 16.6155 5.96697 16.4743 6.21158 16.1715C6.46174 15.8605 6.46174 15.122 6.46174 14.0992C6.46174 11.7306 6.46174 11.5386 3.92326 11.5386ZM3.92311 18.0002C2.36679 18.0002 1.19909 17.8368 0.557543 17.0402C0 16.3488 0 15.4054 0 14.1002L0.692313 14.0771H0C0 11.4278 0.167078 10.154 3.92311 10.154C7.67913 10.154 7.84621 11.4278 7.84621 14.0771C7.84621 15.4045 7.84621 16.3488 7.28867 17.0402C6.64713 17.8368 5.47942 18.0002 3.92311 18.0002ZM11.5386 14.0771C11.5386 11.7306 11.5386 11.5386 14.077 11.5386C16.6155 11.5386 16.6155 11.7306 16.6155 14.0992C16.6155 15.122 16.6155 15.8605 16.3654 16.1715C16.1208 16.4743 15.3943 16.6155 14.077 16.6155C12.7598 16.6155 12.0333 16.4752 11.7887 16.1725C11.5386 15.8605 11.5386 15.122 11.5386 14.1001V14.0771ZM10.7114 17.0402C11.3529 17.8368 12.5206 18.0002 14.077 18.0002C15.6333 18.0002 16.801 17.8368 17.4425 17.0402C18.0001 16.3488 18.0001 15.4045 18.0001 14.0771C18.0001 11.4278 17.833 10.154 14.077 10.154C10.3209 10.154 10.1539 11.4278 10.1539 14.0771H10.8462L10.1539 14.1002C10.1539 15.4054 10.1539 16.3488 10.7114 17.0402Z" fill="#D8D8D8"/>
</svg>
