<svg width="18" height="18" viewBox="0 0 18 18" fill="none" xmlns="http://www.w3.org/2000/svg">
<path fill-rule="evenodd" clip-rule="evenodd" d="M5.70688 16.0191C5.22199 15.8239 4.76389 15.6397 4.27816 15.6397C3.79917 15.643 3.31609 15.8081 2.88866 15.9542L2.8729 15.9596L2.84987 15.9675C2.4908 16.0906 1.96681 16.2703 1.85286 16.1522C1.73434 16.0337 1.9178 15.4959 2.04008 15.1374L2.04129 15.1339L2.04243 15.1305C2.19039 14.6958 2.35786 14.2039 2.35786 13.7152C2.35786 13.2244 2.16859 12.7521 1.97262 12.2672C0.611741 9.3252 1.23481 5.81204 3.52444 3.52409C4.98582 2.06187 6.93125 1.25623 9.0023 1.25623C11.0725 1.25623 13.0171 2.06103 14.4793 3.52325C17.4992 6.54315 17.4992 11.4582 14.4793 14.4798C12.1905 16.7678 8.67737 17.3925 5.70688 16.0191ZM5.20856 17.1722C6.41367 17.73 7.70169 18.0005 8.98134 18.0005C11.3288 18.0005 13.646 17.0893 15.367 15.3675C18.8777 11.8568 18.8777 6.14532 15.367 2.63467C13.6686 0.935448 11.4075 0 9.00144 0C6.5954 0 4.33508 0.936286 2.63671 2.6355C-0.0239203 5.29445 -0.749165 9.3771 0.819407 12.7646C0.99025 13.1892 1.10163 13.484 1.10163 13.7152C1.10163 13.9966 0.975175 14.3684 0.852068 14.7285C0.602503 15.4596 0.292641 16.3683 0.964288 17.0407C1.63811 17.712 2.54869 17.3995 3.28045 17.1483L3.28155 17.1479C3.63831 17.0248 4.00764 16.8975 4.28232 16.8959C4.5193 16.8959 4.84873 17.0279 5.20096 17.1692L5.20856 17.1722ZM11.4669 9.34838C11.4669 9.8115 11.8454 10.1858 12.3077 10.1858C12.77 10.1858 13.1452 9.8115 13.1452 9.34838C13.1452 8.88526 12.77 8.51091 12.3077 8.51091H12.3001C11.8379 8.51091 11.4669 8.88526 11.4669 9.34838ZM8.95048 10.1858C8.4882 10.1858 8.10967 9.8115 8.10967 9.34838C8.10967 8.88526 8.47983 8.51091 8.94295 8.51091H8.95048C9.41276 8.51091 9.78795 8.88526 9.78795 9.34838C9.78795 9.8115 9.41276 10.1858 8.95048 10.1858ZM4.75203 9.34838C4.75203 9.8115 5.13056 10.1858 5.59284 10.1858C6.05512 10.1858 6.43031 9.8115 6.43031 9.34838C6.43031 8.88526 6.05512 8.51091 5.59284 8.51091H5.5853C5.12302 8.51091 4.75203 8.88526 4.75203 9.34838Z" fill="#D8D8D8"/>
</svg>
