<svg width="18" height="18" viewBox="0 0 18 18" fill="none" xmlns="http://www.w3.org/2000/svg">
<path fill-rule="evenodd" clip-rule="evenodd" d="M1.35 5.3244C1.35 2.9097 2.8215 1.35 5.0985 1.35H12.9006C15.1776 1.35 16.65 2.9097 16.65 5.3244V12.6756C16.65 15.0903 15.1776 16.65 12.8997 16.65H5.0985C2.8215 16.65 1.35 15.0903 1.35 12.6756V5.3244ZM5.0985 18H12.8997C15.9507 18 18 15.8598 18 12.6756V5.3244C18 2.1402 15.9507 0 12.9006 0H5.0985C2.0484 0 0 2.1402 0 5.3244V12.6756C0 15.8598 2.0484 18 5.0985 18ZM7.4551 11.6127C7.5865 11.745 7.7602 11.8107 7.9321 11.8107C8.1049 11.8107 8.2777 11.745 8.4091 11.6127L12.6805 7.34129C12.9442 7.07759 12.9442 6.65099 12.6805 6.38729C12.4168 6.12359 11.9902 6.12359 11.7265 6.38729L7.9321 10.1808L6.2725 8.52299C6.0088 8.25929 5.5822 8.25929 5.3185 8.52299C5.0548 8.78669 5.0548 9.21329 5.3185 9.47699L7.4551 11.6127Z" fill="#D8D8D8"/>
</svg>
