<svg width="18" height="18" viewBox="0 0 18 18" fill="none" xmlns="http://www.w3.org/2000/svg">
<path fill-rule="evenodd" clip-rule="evenodd" d="M15.6698 1.30412C15.1064 1.30412 14.6476 1.76057 14.6476 2.3231C14.6476 2.88475 15.1064 3.34295 15.6698 3.34295C16.2331 3.34295 16.6919 2.88475 16.6919 2.3231C16.6919 1.76057 16.2331 1.30412 15.6698 1.30412ZM15.6697 4.64714C14.385 4.64714 13.3394 3.60468 13.3394 2.32313C13.3394 1.04158 14.385 0 15.6697 0C16.9552 0 18 1.04158 18 2.32313C18 3.60468 16.9552 4.64714 15.6697 4.64714ZM4.54917 12.1746C4.40963 12.1746 4.26922 12.1302 4.15061 12.0398C3.86455 11.8199 3.81048 11.4103 4.03113 11.1252L6.64138 7.74307C6.74777 7.60483 6.90563 7.51527 7.07831 7.49354C7.25447 7.47093 7.42715 7.51962 7.56408 7.6283L10.0234 9.5541L12.175 6.78668C12.3965 6.50064 12.8064 6.4476 13.0924 6.67018C13.3785 6.89102 13.4308 7.30052 13.2093 7.58483L10.654 10.8713C10.5476 11.0087 10.3906 11.0982 10.2179 11.1191C10.0435 11.1426 9.87083 11.0921 9.73303 10.9852L7.2754 9.06026L5.06808 11.9198C4.939 12.0868 4.74539 12.1746 4.54917 12.1746ZM4.90915 17.9999H12.4128C15.3493 17.9999 17.322 15.9437 17.322 12.8833V6.76335C17.322 6.4034 17.029 6.11127 16.6679 6.11127C16.3069 6.11127 16.0138 6.4034 16.0138 6.76335V12.8833C16.0138 15.1995 14.6001 16.6958 12.4128 16.6958H4.90915C2.68787 16.6958 1.30818 15.2351 1.30818 12.8833V5.85653C1.30818 3.53513 2.72188 2.03622 4.90915 2.03622H11.2477C11.6088 2.03622 11.9018 1.74409 11.9018 1.38415C11.9018 1.0242 11.6088 0.732068 11.2477 0.732068H4.90915C1.97273 0.732068 0 2.79176 0 5.85653V12.8833C0 15.9437 1.97273 17.9999 4.90915 17.9999Z" fill="#D8D8D8"/>
</svg>
