<svg width="18" height="18" viewBox="0 0 18 18" fill="none" xmlns="http://www.w3.org/2000/svg">
<path fill-rule="evenodd" clip-rule="evenodd" d="M4.56647 17.9996C4.18523 17.9996 3.80676 17.8731 3.48276 17.624C2.92336 17.192 2.6492 16.4788 2.76828 15.7608L3.41075 11.8593C3.43475 11.7143 3.38768 11.5674 3.28614 11.4643L0.557471 8.70109C0.0553082 8.19418 -0.124695 7.44501 0.0876165 6.74935C0.301774 6.04591 0.868554 5.54289 1.56734 5.43781L5.34094 4.86475C5.48679 4.84334 5.61233 4.74897 5.6751 4.6147L7.36159 1.06149C7.67268 0.406693 8.30038 0 9.00009 0C9.69979 0 10.3275 0.406693 10.6386 1.06149L12.326 4.61373C12.3897 4.74897 12.5143 4.84334 12.6592 4.86475L16.4328 5.43781C17.1316 5.54289 17.6984 6.04591 17.9126 6.74935C18.1249 7.44501 17.9439 8.19418 17.4418 8.70109L14.7131 11.4643C14.6116 11.5674 14.5654 11.7143 14.5894 11.8583L15.2328 15.7608C15.351 16.4798 15.0768 17.193 14.5165 17.624C13.9488 18.0628 13.2094 18.1222 12.5826 17.7777L9.21055 15.9359C9.07855 15.8639 8.9207 15.8639 8.7887 15.9359L5.41664 17.7787C5.14709 17.9266 4.85632 17.9996 4.56647 17.9996Z" fill="#FFC654"/>
</svg>
