<svg width="18" height="18" viewBox="0 0 18 18" fill="none" xmlns="http://www.w3.org/2000/svg">
<path fill-rule="evenodd" clip-rule="evenodd" d="M14.5783 2.35247H12.805C12.6365 1.02739 11.5151 0 10.1615 0H7.83836C6.48476 0 5.36342 1.02739 5.1949 2.35247H3.43072C1.53887 2.35247 0 3.90718 0 5.81841V8.96338C0 9.20685 0.126963 9.43116 0.334067 9.55335C2.55846 10.8725 5.37441 11.6415 8.32456 11.743V13.3828C8.32456 13.7604 8.62696 14.0667 8.99956 14.0667C9.37216 14.0667 9.67456 13.7604 9.67456 13.3828V11.7428C12.6276 11.6403 15.4433 10.8715 17.6659 9.55335C17.8721 9.43116 18 9.20685 18 8.96338V5.82753C18 3.91083 16.4656 2.35247 14.5783 2.35247ZM10.1615 1.36777C10.768 1.36777 11.28 1.78593 11.431 2.35247H6.56889C6.71989 1.78593 7.23184 1.36777 7.83836 1.36777H10.1615ZM8.96021 10.3867C6.16529 10.3814 3.48117 9.73717 1.35066 8.5649V5.81841C1.35066 4.66127 2.28353 3.72024 3.4307 3.72024H14.5783C15.7209 3.72024 16.6493 4.66492 16.6493 5.82753V8.5649C14.5199 9.73608 11.8361 10.3802 9.03863 10.3867C9.0257 10.386 9.01267 10.3856 8.99956 10.3856C8.98635 10.3856 8.97323 10.386 8.96021 10.3867ZM3.7771 18H14.2223C16.0908 18 17.6638 16.5219 17.8052 14.6344L17.9763 12.3465C18.0042 11.9699 17.726 11.6408 17.3541 11.6125C16.9885 11.5979 16.658 11.866 16.6292 12.2435L16.4581 14.5304C16.3708 15.7085 15.3884 16.6322 14.2223 16.6322H3.7771C2.61102 16.6322 1.62953 15.7085 1.54129 14.5304L1.3711 12.2435C1.34229 11.866 1.01993 11.5988 0.646239 11.6125C0.274353 11.6408 -0.0047865 11.9699 0.0231275 12.3465L0.194213 14.6344C0.335584 16.5219 1.90867 18 3.7771 18Z" fill="#D8D8D8"/>
</svg>
