<svg width="18" height="18" viewBox="0 0 18 18" fill="none" xmlns="http://www.w3.org/2000/svg">
<path fill-rule="evenodd" clip-rule="evenodd" d="M5.49223 13.4898C5.28315 13.4377 5.06941 13.4125 4.85567 13.4125C4.42259 13.4125 3.99137 13.5176 3.62082 13.72C3.36881 13.8503 3.0664 13.8807 2.79199 13.8095C2.51664 13.7374 2.27864 13.5611 2.13303 13.317L1.54407 12.3718C1.24726 11.8941 1.4246 11.2799 1.93702 11.0037C2.70332 10.591 3.18027 9.82398 3.18027 9.00047C3.18027 8.17696 2.70332 7.40904 1.93889 6.99728C1.42367 6.71844 1.24633 6.1008 1.53567 5.63345L2.16756 4.6666C2.46531 4.18449 3.12987 4.01857 3.63855 4.28786C4.0007 4.48939 4.41792 4.59798 4.851 4.60232C6.20159 4.60232 7.31696 3.57988 7.33656 2.30987C7.3347 2.04057 7.44577 1.78779 7.64924 1.59754C7.85365 1.40817 8.12433 1.30306 8.41367 1.30306H9.58318C9.87533 1.30306 10.16 1.41338 10.3625 1.60797C10.566 1.80342 10.678 2.07011 10.6696 2.3672C10.6734 2.76245 10.79 3.15075 11.0047 3.48433C11.3398 4.0177 11.8774 4.39558 12.5186 4.5502C13.1608 4.70743 13.8291 4.61883 14.391 4.30958C14.9109 4.0342 15.5735 4.20012 15.8713 4.68224L16.4182 5.56482C16.4276 5.58567 16.4388 5.60565 16.4509 5.62476C16.7449 6.10428 16.5676 6.72017 16.0617 6.99555C15.6846 7.19708 15.3701 7.48983 15.1554 7.8373C14.8259 8.36459 14.7335 9.00481 14.9025 9.59118C15.0733 10.1888 15.4849 10.6875 16.0617 10.9967C16.3081 11.1279 16.4911 11.3503 16.5639 11.6065C16.6376 11.8628 16.5975 12.1408 16.4593 12.3623L15.8396 13.3239C15.539 13.8017 14.8754 13.9667 14.3555 13.6896C13.9943 13.4985 13.5845 13.3917 13.1589 13.3821C12.5093 13.3647 11.8597 13.6245 11.3949 14.0571C10.9235 14.4958 10.6659 15.0787 10.6696 15.6919C10.6668 16.247 10.1796 16.697 9.58318 16.697H8.41367C7.81445 16.697 7.32723 16.2444 7.32723 15.6798C7.3235 15.2854 7.20683 14.8988 6.99588 14.5679C6.67107 14.0406 6.12318 13.6479 5.49223 13.4898ZM8.41369 18H9.5832C10.9478 18 12.0632 16.968 12.0697 15.6919C12.0678 15.4226 12.1798 15.169 12.3842 14.9787C12.5858 14.792 12.8631 14.6851 13.1328 14.6851H13.1384C13.3195 14.6894 13.5015 14.7355 13.6592 14.8197C14.8418 15.4556 16.3623 15.0777 17.0446 13.9867L17.6643 13.0259C17.9938 12.4986 18.0862 11.8593 17.9173 11.2703C17.7483 10.6805 17.3255 10.1697 16.7589 9.86651C16.5079 9.73273 16.3296 9.51643 16.2549 9.25583C16.1821 9.00043 16.2223 8.72246 16.3669 8.48878C16.4603 8.33763 16.5956 8.21254 16.7627 8.12306C17.9107 7.49848 18.3233 6.1303 17.7054 5.04358C17.6942 5.01839 17.6811 4.99406 17.6662 4.96887L17.0847 4.03156C16.4024 2.92833 14.8819 2.54785 13.6872 3.18286C13.4399 3.31924 13.1487 3.35399 12.8705 3.28971C12.5924 3.22195 12.3581 3.0569 12.2097 2.82235C12.1201 2.68076 12.0706 2.51918 12.0688 2.37933C12.0884 1.75822 11.8317 1.14579 11.3669 0.699291C10.9011 0.255393 10.2515 0 9.5832 0H8.41369C7.75006 0 7.12657 0.240625 6.65709 0.678442C6.18947 1.11713 5.93279 1.69828 5.93653 2.30375C5.92719 2.85276 5.44091 3.29926 4.85942 3.29926C4.68115 3.29752 4.50567 3.25235 4.3442 3.16288C3.15789 2.52874 1.63649 2.9127 0.963536 4.00203L0.330711 4.96887C-0.350648 6.07036 0.0544339 7.48545 1.23701 8.1248C1.57209 8.30462 1.78023 8.6408 1.78023 9.00043C1.78023 9.36007 1.57209 9.69538 1.23701 9.8752C0.0553672 10.5111 -0.350648 11.9227 0.331645 13.0242L0.915 13.9598C1.23421 14.494 1.77837 14.8971 2.40839 15.063C3.03935 15.228 3.72911 15.1542 4.31526 14.8502C4.55981 14.7181 4.85755 14.6808 5.12916 14.7485C5.40264 14.8163 5.63972 14.9865 5.78625 15.2246C5.87679 15.3661 5.92533 15.5295 5.92719 15.6867C5.92719 16.9628 7.04257 18 8.41369 18ZM7.24224 9.00063C7.24224 8.09719 8.03187 7.36142 9.00257 7.36142C9.97327 7.36142 10.7629 8.09719 10.7629 9.00063C10.7629 9.90406 9.97327 10.6381 9.00257 10.6381C8.03187 10.6381 7.24224 9.90406 7.24224 9.00063ZM5.84209 9.00062C5.84209 10.6224 7.25988 11.9411 9.00248 11.9411C10.7451 11.9411 12.1629 10.6224 12.1629 9.00062C12.1629 7.37878 10.7451 6.05838 9.00248 6.05838C7.25988 6.05838 5.84209 7.37878 5.84209 9.00062Z" fill="#D8D8D8"/>
</svg>
