<svg width="25" height="29" viewBox="0 0 25 29" fill="none" xmlns="http://www.w3.org/2000/svg">
<path d="M23.8353 12.1199H1.51737C1.26827 12.1199 1.02937 12.0201 0.853223 11.8423C0.677081 11.6646 0.578125 11.4235 0.578125 11.1722C0.578125 10.9208 0.677081 10.6797 0.853223 10.502C1.02937 10.3242 1.26827 10.2244 1.51737 10.2244H23.8353C24.0844 10.2244 24.3233 10.3242 24.4994 10.502C24.6756 10.6797 24.7745 10.9208 24.7745 11.1722C24.7745 11.4235 24.6756 11.6646 24.4994 11.8423C24.3233 12.0201 24.0844 12.1199 23.8353 12.1199V12.1199Z" fill="#F9F9F9"/>
<path d="M17.7342 6.92343C17.6108 6.92354 17.4886 6.8991 17.3745 6.85148C17.2604 6.80387 17.1568 6.73403 17.0695 6.64596C16.9823 6.55789 16.913 6.45331 16.8659 6.33822C16.8187 6.22313 16.7944 6.09977 16.7946 5.97522V1.81741C16.7946 1.56605 16.8935 1.32497 17.0697 1.14723C17.2458 0.969485 17.4847 0.869629 17.7338 0.869629C17.9829 0.869629 18.2218 0.969485 18.398 1.14723C18.5741 1.32497 18.6731 1.56605 18.6731 1.81741V5.97522C18.6732 6.0997 18.649 6.22298 18.6018 6.33802C18.5547 6.45306 18.4856 6.5576 18.3984 6.64566C18.3112 6.73372 18.2077 6.80358 18.0937 6.85124C17.9797 6.8989 17.8576 6.92343 17.7342 6.92343V6.92343Z" fill="#F9F9F9"/>
<path d="M7.61924 6.92343C7.49581 6.92354 7.37357 6.8991 7.25951 6.85148C7.14546 6.80387 7.04182 6.73403 6.95454 6.64596C6.86726 6.55789 6.79805 6.45331 6.75087 6.33822C6.70368 6.22313 6.67945 6.09977 6.67957 5.97522V1.81741C6.67957 1.56605 6.77852 1.32497 6.95467 1.14723C7.13081 0.969485 7.36972 0.869629 7.61882 0.869629C7.86793 0.869629 8.10683 0.969485 8.28298 1.14723C8.45912 1.32497 8.55808 1.56605 8.55808 1.81741V5.97522C8.55819 6.0997 8.53399 6.22298 8.48686 6.33802C8.43972 6.45306 8.37059 6.5576 8.2834 6.64566C8.19621 6.73372 8.09268 6.80358 7.97872 6.85124C7.86476 6.8989 7.7426 6.92343 7.61924 6.92343V6.92343Z" fill="#F9F9F9"/>
<path d="M7.37585 2.8654H17.9775C18.9109 2.81801 19.8443 2.95899 20.723 3.28009C21.6017 3.60118 22.4081 4.09594 23.095 4.73539C23.7039 5.39827 24.1753 6.17724 24.4817 7.02655C24.788 7.87586 24.9231 8.77839 24.8789 9.6811V21.2097C24.9232 22.1376 24.7777 23.0647 24.4515 23.9333C24.1252 24.8019 23.6252 25.5935 22.9826 26.2586C21.6016 27.4856 19.802 28.1228 17.964 28.0357H7.37585C5.5325 28.1217 3.72959 27.4727 2.35639 26.2288C1.71266 25.5507 1.21272 24.7472 0.88712 23.8675C0.56152 22.9879 0.4171 22.0504 0.462686 21.1125V9.6794C0.418305 8.75175 0.564275 7.82486 0.891446 6.95679C1.21862 6.08873 1.71994 5.29821 2.36399 4.63477C3.74487 3.41293 5.5413 2.77872 7.37585 2.8654V2.8654ZM17.9666 26.1443C21.2132 26.1443 23.0012 24.3929 23.0012 21.2131V9.6794C23.0455 9.02543 22.9589 8.36916 22.7467 7.74965C22.5345 7.13014 22.2009 6.56004 21.7658 6.07329C21.2514 5.61347 20.6519 5.2608 20.0019 5.03559C19.3519 4.81037 18.6642 4.71704 17.9784 4.76097H7.37585C4.12926 4.76097 2.34118 6.50817 2.34118 9.6794V21.1134C2.34118 24.3537 4.12926 26.1401 7.37585 26.1401L17.9666 26.1443Z" fill="#F9F9F9"/>
</svg>
