<svg width="18" height="17" viewBox="0 0 18 17" fill="none" xmlns="http://www.w3.org/2000/svg">
<path fill-rule="evenodd" clip-rule="evenodd" d="M8.83188 1.5C5.32322 1.5 2.47888 4.25814 2.47888 7.66049C2.47888 11.0628 5.32322 13.821 8.83188 13.821C12.3406 13.821 15.1849 11.0628 15.1849 7.66049C15.1849 4.25814 12.3406 1.5 8.83188 1.5ZM0.932007 7.66049C0.932007 3.42972 4.4689 0 8.83188 0C13.1949 0 16.7318 3.42972 16.7318 7.66049C16.7318 11.8913 13.1949 15.321 8.83188 15.321C4.4689 15.321 0.932007 11.8913 0.932007 7.66049Z" fill="black"/>
<path fill-rule="evenodd" clip-rule="evenodd" d="M13.2408 12.2963C13.5424 12.003 14.0321 12.0024 14.3346 12.2949L17.1286 14.9972C17.431 15.2897 17.4316 15.7646 17.13 16.0578C16.8283 16.3511 16.3386 16.3517 16.0362 16.0592L13.2422 13.3569C12.9398 13.0644 12.9391 12.5896 13.2408 12.2963Z" fill="black"/>
</svg>
 