<svg width="18" height="16" viewBox="0 0 18 16" fill="none" xmlns="http://www.w3.org/2000/svg">
<path fill-rule="evenodd" clip-rule="evenodd" d="M3.20206 1.51001C2.28766 1.51001 1.54297 2.23052 1.54297 3.11706C1.54297 4.0026 2.28766 4.7221 3.20206 4.7221C4.1175 4.7221 4.86116 4.0026 4.86116 3.11706C4.86116 2.23052 4.1175 1.51001 3.20206 1.51001ZM3.20196 6.23097C1.43692 6.23097 0 4.83424 0 3.11649C0 1.39875 1.43692 0 3.20196 0C4.96803 0 6.40392 1.39875 6.40392 3.11649C6.40392 4.83424 4.96803 6.23097 3.20196 6.23097ZM10.1738 3.92507H16.6538C17.0796 3.92507 17.4252 3.58695 17.4252 3.17035C17.4252 2.75374 17.0796 2.41563 16.6538 2.41563H10.1738C9.74795 2.41563 9.40234 2.75374 9.40234 3.17035C9.40234 3.58695 9.74795 3.92507 10.1738 3.92507ZM0.801462 13.6782H7.28253C7.70836 13.6782 8.05396 13.3401 8.05396 12.9235C8.05396 12.5069 7.70836 12.1687 7.28253 12.1687H0.801462C0.375631 12.1687 0.0300293 12.5069 0.0300293 12.9235C0.0300293 13.3401 0.375631 13.6782 0.801462 13.6782ZM13.1389 12.8847C13.1389 11.9991 13.8836 11.2786 14.799 11.2786C15.7134 11.2786 16.4571 11.9991 16.4571 12.8847C16.4571 13.7712 15.7134 14.4907 14.799 14.4907C13.8836 14.4907 13.1389 13.7712 13.1389 12.8847ZM11.5962 12.8845C11.5962 14.6022 13.0331 16 14.7992 16C16.5642 16 18.0001 14.6022 18.0001 12.8845C18.0001 11.1668 16.5642 9.76901 14.7992 9.76901C13.0331 9.76901 11.5962 11.1668 11.5962 12.8845Z" fill="#808080"/>
</svg>
