<svg width="16" height="16" viewBox="0 0 16 16" fill="none" xmlns="http://www.w3.org/2000/svg">
<path fill-rule="evenodd" clip-rule="evenodd" d="M1.2 5.33342V9.60008C1.2 12.472 3.52812 14.8001 6.4 14.8001H9.6C12.4719 14.8001 14.8 12.472 14.8 9.60008V5.33342H1.2ZM0.8 4.13342C0.358172 4.13342 0 4.4916 0 4.93342V9.60008C0 13.1347 2.86538 16.0001 6.4 16.0001H9.6C13.1346 16.0001 16 13.1347 16 9.60008V4.93342C16 4.4916 15.6418 4.13342 15.2 4.13342H0.8Z" fill="#D8D8D8"/>
<path fill-rule="evenodd" clip-rule="evenodd" d="M11.2593 1.2H4.74073C2.99234 1.2 1.53993 2.46724 1.2519 4.13333H14.7481C14.4601 2.46724 13.0077 1.2 11.2593 1.2ZM4.74073 0C2.1225 0 0 2.1225 0 4.74073C0 5.06801 0.265313 5.33333 0.592592 5.33333H15.4074C15.7347 5.33333 16 5.06801 16 4.74073C16 2.1225 13.8775 0 11.2593 0H4.74073Z" fill="#D8D8D8"/>
</svg>
