<svg width="16" height="16" viewBox="0 0 16 16" fill="none" xmlns="http://www.w3.org/2000/svg">
<path fill-rule="evenodd" clip-rule="evenodd" d="M3.16797 4.31127C3.16797 2.62874 4.47409 1.25937 6.07972 1.25937C7.68455 1.25937 8.99068 2.62874 8.99068 4.31379C8.99388 5.12483 8.69518 5.88969 8.14902 6.4648C7.60367 7.0416 6.87653 7.3598 6.10455 7.36316H6.07972C4.47409 7.36316 3.16797 5.9938 3.16797 4.31127ZM1.9668 4.31127C1.9668 6.68814 3.81187 8.62254 6.07977 8.62254H6.107C7.20171 8.61834 8.23075 8.16748 9.00114 7.35225C9.77312 6.53785 10.1968 5.45646 10.1919 4.31127C10.1919 1.9344 8.34687 0 6.07977 0C3.81187 0 1.9668 1.9344 1.9668 4.31127ZM1.20117 13.0295C1.20117 11.598 3.85426 11.2982 6.07972 11.2982C9.31661 11.2982 10.9583 11.875 10.9583 13.0127C10.9583 14.1587 9.31661 14.7405 6.07972 14.7405C2.84284 14.7405 1.20117 14.1646 1.20117 13.0295ZM0 13.0297C0 16.0001 4.41728 16.0001 6.07977 16.0001C7.5837 16.0001 12.1595 16.0001 12.1595 13.0129C12.1595 10.3472 8.68962 10.0391 6.07977 10.0391C4.57584 10.0391 0 10.0391 0 13.0297ZM11.5979 7.66693C11.3032 7.66693 11.0461 7.4394 11.0037 7.12456C10.958 6.78033 11.1862 6.46128 11.5146 6.41343C12.514 6.2665 13.2684 5.35723 13.27 4.29767C13.27 3.24483 12.5508 2.35655 11.5618 2.18696C11.2343 2.12986 11.0125 1.80662 11.0661 1.46323C11.1198 1.11984 11.4297 0.888957 11.7556 0.94353C13.3292 1.21388 14.4712 2.62522 14.4712 4.29851C14.468 5.98188 13.2692 7.42765 11.682 7.66105C11.6539 7.66525 11.6259 7.66693 11.5979 7.66693ZM13.7698 13.4141C13.8603 13.6651 14.0885 13.8205 14.3311 13.8205C14.4024 13.8205 14.4745 13.807 14.5442 13.7793C15.7478 13.3016 16 12.4729 16 11.8609C16 11.0389 15.546 9.98692 13.379 9.64689C13.057 9.60239 12.7455 9.83327 12.6959 10.1775C12.647 10.5209 12.8737 10.8416 13.202 10.8937C14.2615 11.0591 14.7988 11.3848 14.7988 11.8609C14.7988 12.0019 14.7988 12.3319 14.1181 12.6022C13.8082 12.7248 13.6521 13.0892 13.7698 13.4141Z" fill="#D8D8D8"/>
</svg>
