<svg width="16" height="18" viewBox="0 0 16 18" fill="none" xmlns="http://www.w3.org/2000/svg">
<path fill-rule="evenodd" clip-rule="evenodd" d="M10.7023 3.31569C10.7023 3.65538 10.978 3.93107 11.3177 3.93107C11.6574 3.93107 11.9331 3.65538 11.9331 3.31569V2.54533C12.7905 2.61842 13.4846 2.90277 13.9594 3.37898C14.5002 3.92051 14.7726 4.7082 14.7693 5.72154V6.07539H1.23086V5.72154C1.23086 3.81355 2.23571 2.69931 4.07402 2.54499V3.31569C4.07402 3.65538 4.34972 3.93107 4.68941 3.93107C5.0291 3.93107 5.30479 3.65538 5.30479 3.31569V2.52646H10.7023V3.31569ZM11.9331 1.31103V0.615383C11.9331 0.275692 11.6574 0 11.3177 0C10.978 0 10.7023 0.275692 10.7023 0.615383V1.2957H5.30479V0.615383C5.30479 0.275692 5.0291 0 4.68941 0C4.34972 0 4.07402 0.275692 4.07402 0.615383V1.31131C1.54853 1.48738 0 3.14268 0 5.72154V13.1463C0 15.9189 1.7362 17.6411 4.53004 17.6411H11.4699C14.2638 17.6411 16 15.9426 16 13.2087V5.72318C16.0041 4.39149 15.5996 3.28134 14.8307 2.50924C14.1264 1.80347 13.1313 1.3931 11.9331 1.31103ZM1.23086 7.30616V13.1463C1.23086 15.2518 2.40255 16.4103 4.53014 16.4103H11.47C13.5976 16.4103 14.7693 15.2731 14.7693 13.2087V7.30616H1.23086ZM11.0336 9.89507C11.0336 10.2348 11.3126 10.5105 11.6523 10.5105C11.992 10.5105 12.2677 10.2348 12.2677 9.89507C12.2677 9.55538 11.992 9.27969 11.6523 9.27969H11.6449C11.3052 9.27969 11.0336 9.55538 11.0336 9.89507ZM8.01129 10.5105C7.6716 10.5105 7.39263 10.2348 7.39263 9.89507C7.39263 9.55538 7.66422 9.27969 8.00391 9.27969H8.01129C8.35098 9.27969 8.62668 9.55538 8.62668 9.89507C8.62668 10.2348 8.35098 10.5105 8.01129 10.5105ZM3.74316 9.89507C3.74316 10.2348 4.02296 10.5105 4.36265 10.5105C4.70234 10.5105 4.97803 10.2348 4.97803 9.89507C4.97803 9.55538 4.70234 9.27969 4.36265 9.27969H4.35527C4.01557 9.27969 3.74316 9.55538 3.74316 9.89507ZM11.6523 13.6995C11.3126 13.6995 11.0336 13.4238 11.0336 13.0841C11.0336 12.7444 11.3052 12.4688 11.6449 12.4688H11.6523C11.992 12.4688 12.2677 12.7444 12.2677 13.0841C12.2677 13.4238 11.992 13.6995 11.6523 13.6995ZM7.39263 13.0841C7.39263 13.4238 7.6716 13.6995 8.01129 13.6995C8.35098 13.6995 8.62668 13.4238 8.62668 13.0841C8.62668 12.7444 8.35098 12.4688 8.01129 12.4688H8.00391C7.66422 12.4688 7.39263 12.7444 7.39263 13.0841ZM4.36265 13.6995C4.02296 13.6995 3.74316 13.4238 3.74316 13.0841C3.74316 12.7444 4.01557 12.4688 4.35527 12.4688H4.36265C4.70234 12.4688 4.97803 12.7444 4.97803 13.0841C4.97803 13.4238 4.70234 13.6995 4.36265 13.6995Z" fill="black"/>
</svg>
