<svg width="14" height="21" viewBox="0 0 14 21" fill="none" xmlns="http://www.w3.org/2000/svg">
<path fill-rule="evenodd" clip-rule="evenodd" d="M6.99999 13.2636C10.1631 13.2636 12.7273 10.6994 12.7273 7.53636C12.7273 4.37328 10.1631 1.8091 6.99999 1.8091C3.83691 1.8091 1.27272 4.37328 1.27272 7.53636C1.27272 10.6994 3.83691 13.2636 6.99999 13.2636ZM6.99999 14.5364C10.866 14.5364 14 11.4024 14 7.53636C14 3.67038 10.866 0.536377 6.99999 0.536377C3.134 0.536377 0 3.67038 0 7.53636C0 11.4024 3.134 14.5364 6.99999 14.5364Z" fill="black"/>
<path fill-rule="evenodd" clip-rule="evenodd" d="M6.99999 13.2636C7.35144 13.2636 7.63635 13.5485 7.63635 13.9V19.6272C7.63635 19.9787 7.35144 20.2636 6.99999 20.2636C6.64854 20.2636 6.36363 19.9787 6.36363 19.6272V13.9C6.36363 13.5485 6.64854 13.2636 6.99999 13.2636Z" fill="black"/>
<path fill-rule="evenodd" clip-rule="evenodd" d="M3.81812 17.7182C3.81812 17.3668 4.10302 17.0818 4.45448 17.0818H9.54538C9.89683 17.0818 10.1817 17.3668 10.1817 17.7182C10.1817 18.0697 9.89683 18.3546 9.54538 18.3546H4.45448C4.10302 18.3546 3.81812 18.0697 3.81812 17.7182Z" fill="black"/>
</svg>
