<svg width="17" height="13" viewBox="0 0 17 13" fill="none" xmlns="http://www.w3.org/2000/svg">
<path fill-rule="evenodd" clip-rule="evenodd" d="M7.90246 0.163257C8.08338 0.0564752 8.28979 0 8.50028 0C8.71076 0 8.91717 0.0564752 9.09809 0.163257C9.27898 0.270021 9.42762 0.423063 9.529 0.606126L11.6703 4.47236L15.3452 2.83403C15.5457 2.74465 15.7673 2.71311 15.985 2.74317C16.2027 2.77323 16.4073 2.86361 16.5758 3.00365C16.7442 3.14366 16.8699 3.32766 16.9392 3.53465C17.0085 3.74161 17.0188 3.96372 16.9689 4.17613L15.1116 12.0936C15.0751 12.2474 15.008 12.3926 14.914 12.5201C14.82 12.6477 14.701 12.7552 14.5641 12.8359C14.4272 12.9166 14.2752 12.9688 14.1173 12.9892C13.9601 13.0096 13.8004 12.9979 13.6479 12.955C10.2778 12.0226 6.71905 12.023 3.34917 12.956C3.19658 12.9989 3.03685 13.0106 2.87957 12.9903C2.72161 12.9699 2.56957 12.9177 2.4326 12.8369C2.29564 12.7561 2.17667 12.6486 2.08266 12.5209C1.98867 12.3933 1.92155 12.2481 1.88515 12.0941L1.88486 12.0929L0.0309527 4.1754C-0.0187774 3.96302 -0.00843145 3.74095 0.0608922 3.53405C0.130225 3.32712 0.255944 3.14319 0.424421 3.00324C0.592934 2.86327 0.797476 2.77294 1.01511 2.74291C1.23276 2.71287 1.45435 2.74442 1.65481 2.83378L5.33026 4.47236L7.47155 0.606126C7.57294 0.423061 7.72157 0.27002 7.90246 0.163257ZM8.50028 1.19464L6.3641 5.05164C6.22206 5.3081 5.98884 5.50297 5.70945 5.59669C5.42998 5.69044 5.12556 5.67581 4.85646 5.55585L5.53627 4.28018L5.64705 4.16486M8.50028 1.19464L10.6365 5.05164C10.7785 5.3081 11.0117 5.50297 11.2911 5.59669C11.5706 5.69044 11.875 5.67581 12.1441 5.55585L15.8107 3.9212L13.959 11.8146C10.3852 10.827 6.61149 10.8274 3.03784 11.8156L1.18928 3.92095L4.85646 5.55585L5.53627 4.28018" fill="#D8D8D8"/>
</svg>
