<svg width="18" height="18" viewBox="0 0 18 18" fill="none" xmlns="http://www.w3.org/2000/svg">
<path fill-rule="evenodd" clip-rule="evenodd" d="M3.37833 16.0821C6.35171 18.577 10.7847 18.1892 13.2796 15.2158C15.635 12.4088 15.4211 8.30104 12.8881 5.75088L15.5966 2.52299L15.8463 5.37655C15.8773 5.73096 16.1897 5.99313 16.5441 5.96212C16.8985 5.93111 17.1607 5.61868 17.1297 5.26427L16.7445 0.861491C16.7135 0.507087 16.4011 0.244921 16.0467 0.275927L11.6439 0.661122C11.2895 0.692127 11.0273 1.00456 11.0583 1.35897C11.0893 1.71337 11.4018 1.97554 11.7562 1.94453L14.6097 1.69488L11.9012 4.92277C8.94993 2.87105 4.86747 3.37372 2.51208 6.18075C0.0171243 9.15413 0.404957 13.5871 3.37833 16.0821ZM12.2927 14.3877C10.2551 16.816 6.63477 17.1328 4.20645 15.0951C1.77812 13.0575 1.46138 9.43719 3.49899 7.00886C5.5366 4.58054 9.15695 4.2638 11.5853 6.30141C14.0136 8.33901 14.3303 11.9594 12.2927 14.3877Z" fill="black"/>
</svg>
